<?xml version="1.0" encoding="UTF-8" standalone="no"?>
<!DOCTYPE svg PUBLIC "-//W3C//DTD SVG 1.1//EN" "http://www.w3.org/Graphics/SVG/1.1/DTD/svg11.dtd">
<!-- Generated by graphviz version 2.40.1 (20161225.0304)
 -->
<!-- Title: workflow Pages: 1 -->
<svg width="1501pt" height="436pt" viewBox="0.00 0.00 1501.00 436.00" xmlns="http://www.w3.org/2000/svg" xmlns:xlink="http://www.w3.org/1999/xlink">
<g id="graph0" class="graph" transform="scale(1 1) rotate(0) translate(4 432)">
<title>workflow</title>
<polygon fill="#ffffff" stroke="transparent" points="-4,4 -4,-432 1497,-432 1497,4 -4,4"/>
<g id="clust1" class="cluster">
<title>cluster_9</title>
<polygon fill="#b0e2ff" stroke="#000000" points="573,-296 573,-348 920,-348 920,-296 573,-296"/>
</g>
<g id="clust2" class="cluster">
<title>cluster_3</title>
<polygon fill="#ffffff" stroke="#000000" stroke-dasharray="5,2" points="8,-296 8,-348 565,-348 565,-296 8,-296"/>
</g>
<g id="clust3" class="cluster">
<title>cluster_2</title>
<polygon fill="#ffffff" stroke="#000000" points="570,-80 570,-132 1222,-132 1222,-80 570,-80"/>
</g>
<g id="clust4" class="cluster">
<title>cluster_1</title>
<polygon fill="#ffffff" stroke="#000000" points="971,-224 971,-276 1401,-276 1401,-224 971,-224"/>
</g>
<g id="clust5" class="cluster">
<title>cluster_8</title>
<polygon fill="#98fb98" stroke="#000000" points="504,-8 504,-60 1073,-60 1073,-8 504,-8"/>
</g>
<g id="clust6" class="cluster">
<title>cluster_0</title>
<polygon fill="#ffffff" stroke="#000000" stroke-dasharray="5,2" points="850,-152 850,-204 1322,-204 1322,-152 850,-152"/>
</g>
<g id="clust7" class="cluster">
<title>cluster_4</title>
<polygon fill="#ffffff" stroke="#000000" stroke-dasharray="5,2" points="283,-152 283,-204 797,-204 797,-152 283,-152"/>
</g>
<g id="clust8" class="cluster">
<title>cluster_5</title>
<polygon fill="#ffffff" stroke="#000000" points="472,-368 472,-420 898,-420 898,-368 472,-368"/>
</g>
<g id="clust9" class="cluster">
<title>cluster_6</title>
<polygon fill="#ffffff" stroke="#000000" points="281,-224 281,-276 888,-276 888,-224 281,-224"/>
</g>
<g id="clust10" class="cluster">
<title>cluster_7</title>
<polygon fill="#ffffff" stroke="#000000" stroke-dasharray="5,2" points="928,-296 928,-348 1485,-348 1485,-296 928,-296"/>
</g>
<!-- PORT955611965 -->
<g id="node1" class="node">
<title>PORT955611965</title>
<polygon fill="none" stroke="#000000" points="556.9745,-322 525.9873,-340 464.0127,-340 433.0255,-322 464.0127,-304 525.9873,-304 556.9745,-322"/>
<text text-anchor="middle" x="495" y="-317.8" font-family="Times,serif" font-size="14.00" fill="#000000">File in_file</text>
</g>
<!-- PORT237373286 -->
<g id="node2" class="node">
<title>PORT237373286</title>
<ellipse fill="none" stroke="#000000" cx="680" cy="-250" rx="53.8657" ry="18"/>
<text text-anchor="middle" x="680" y="-245.8" font-family="Times,serif" font-size="14.00" fill="#000000">File in_file</text>
</g>
<!-- PORT955611965&#45;&gt;PORT237373286 -->
<g id="edge1" class="edge">
<title>PORT955611965-&gt;PORT237373286</title>
<path fill="none" stroke="#000000" d="M533.0341,-308.0029C557.1615,-299.0388 588.997,-287.0546 617,-276 623.4332,-273.4604 630.2132,-270.725 636.8461,-268.0156"/>
<polygon fill="#000000" stroke="#000000" points="638.4813,-271.1278 646.4014,-264.0906 635.8215,-264.6528 638.4813,-271.1278"/>
</g>
<!-- PORT466032056 -->
<g id="node3" class="node">
<title>PORT466032056</title>
<polygon fill="none" stroke="#000000" points="1314.3592,-178 1280.1796,-196 1211.8204,-196 1177.6408,-178 1211.8204,-160 1280.1796,-160 1314.3592,-178"/>
<text text-anchor="middle" x="1246" y="-173.8" font-family="Times,serif" font-size="14.00" fill="#000000">Int wcCount</text>
</g>
<!-- PORT42820240 -->
<g id="node4" class="node">
<title>PORT42820240</title>
<ellipse fill="none" stroke="#000000" cx="1155" cy="-106" rx="59.0901" ry="18"/>
<text text-anchor="middle" x="1155" y="-101.8" font-family="Times,serif" font-size="14.00" fill="#000000">Int wcCount</text>
</g>
<!-- PORT466032056&#45;&gt;PORT42820240 -->
<g id="edge2" class="edge">
<title>PORT466032056-&gt;PORT42820240</title>
<path fill="none" stroke="#000000" d="M1223.0369,-159.8314C1211.2888,-150.5362 1196.859,-139.1192 1184.3159,-129.195"/>
<polygon fill="#000000" stroke="#000000" points="1186.4069,-126.3864 1176.393,-122.9263 1182.0635,-131.8759 1186.4069,-126.3864"/>
</g>
<!-- PORT929706284 -->
<g id="node5" class="node">
<title>PORT929706284</title>
<polygon fill="none" stroke="#000000" points="1078.2577,-106 1030.6289,-124 935.3711,-124 887.7423,-106 935.3711,-88 1030.6289,-88 1078.2577,-106"/>
<text text-anchor="middle" x="983" y="-101.8" font-family="Times,serif" font-size="14.00" fill="#000000">Int join.proportion</text>
</g>
<!-- PORT1070194629 -->
<g id="node6" class="node">
<title>PORT1070194629</title>
<ellipse fill="none" stroke="#000000" cx="983" cy="-34" rx="82.2681" ry="18"/>
<text text-anchor="middle" x="983" y="-29.8" font-family="Times,serif" font-size="14.00" fill="#000000">Int join.proportion</text>
</g>
<!-- PORT929706284&#45;&gt;PORT1070194629 -->
<g id="edge3" class="edge">
<title>PORT929706284-&gt;PORT1070194629</title>
<path fill="none" stroke="#000000" d="M983,-87.8314C983,-80.131 983,-70.9743 983,-62.4166"/>
<polygon fill="#000000" stroke="#000000" points="986.5001,-62.4132 983,-52.4133 979.5001,-62.4133 986.5001,-62.4132"/>
</g>
<!-- PORT501608687 -->
<g id="node7" class="node">
<title>PORT501608687</title>
<polygon fill="none" stroke="#000000" points="1476.9745,-322 1445.9873,-340 1384.0127,-340 1353.0255,-322 1384.0127,-304 1445.9873,-304 1476.9745,-322"/>
<text text-anchor="middle" x="1415" y="-317.8" font-family="Times,serif" font-size="14.00" fill="#000000">File in_file</text>
</g>
<!-- PORT1491522744 -->
<g id="node8" class="node">
<title>PORT1491522744</title>
<ellipse fill="none" stroke="#000000" cx="1339" cy="-250" rx="53.8657" ry="18"/>
<text text-anchor="middle" x="1339" y="-245.8" font-family="Times,serif" font-size="14.00" fill="#000000">File in_file</text>
</g>
<!-- PORT501608687&#45;&gt;PORT1491522744 -->
<g id="edge4" class="edge">
<title>PORT501608687-&gt;PORT1491522744</title>
<path fill="none" stroke="#000000" d="M1395.822,-303.8314C1386.3608,-294.8682 1374.8171,-283.932 1364.6119,-274.2639"/>
<polygon fill="#000000" stroke="#000000" points="1366.7921,-271.5081 1357.1254,-267.1715 1361.9779,-276.5898 1366.7921,-271.5081"/>
</g>
<!-- PORT1592840862 -->
<g id="node9" class="node">
<title>PORT1592840862</title>
<polygon fill="none" stroke="#000000" points="788.9851,-178 751.4925,-196 676.5075,-196 639.0149,-178 676.5075,-160 751.4925,-160 788.9851,-178"/>
<text text-anchor="middle" x="714" y="-173.8" font-family="Times,serif" font-size="14.00" fill="#000000">Int grepCount</text>
</g>
<!-- PORT1822434669 -->
<g id="node10" class="node">
<title>PORT1822434669</title>
<ellipse fill="none" stroke="#000000" cx="805" cy="-106" rx="64.8909" ry="18"/>
<text text-anchor="middle" x="805" y="-101.8" font-family="Times,serif" font-size="14.00" fill="#000000">Int grepCount</text>
</g>
<!-- PORT1592840862&#45;&gt;PORT1822434669 -->
<g id="edge5" class="edge">
<title>PORT1592840862-&gt;PORT1822434669</title>
<path fill="none" stroke="#000000" d="M736.9631,-159.8314C748.6248,-150.6045 762.9289,-139.287 775.4071,-129.4142"/>
<polygon fill="#000000" stroke="#000000" points="777.6267,-132.1211 783.2972,-123.1715 773.2833,-126.6315 777.6267,-132.1211"/>
</g>
<!-- PORT1021565761 -->
<g id="node11" class="node">
<title>PORT1021565761</title>
<polygon fill="none" stroke="#000000" points="889.8218,-394 836.9109,-412 731.0891,-412 678.1782,-394 731.0891,-376 836.9109,-376 889.8218,-394"/>
<text text-anchor="middle" x="784" y="-389.8" font-family="Times,serif" font-size="14.00" fill="#000000">File mkFile.numbers</text>
</g>
<!-- PORT1367672657 -->
<g id="node12" class="node">
<title>PORT1367672657</title>
<ellipse fill="none" stroke="#000000" cx="324" cy="-322" rx="91.5099" ry="18"/>
<text text-anchor="middle" x="324" y="-317.8" font-family="Times,serif" font-size="14.00" fill="#000000">File mkFile.numbers</text>
</g>
<!-- PORT1021565761&#45;&gt;PORT1367672657 -->
<g id="edge6" class="edge">
<title>PORT1021565761-&gt;PORT1367672657</title>
<path fill="none" stroke="#000000" d="M723.1308,-378.5584C705.7409,-374.6051 686.7043,-370.7102 669,-368 561.0069,-351.4685 531.7146,-366.2583 424,-348 411.1044,-345.8141 397.4424,-342.7642 384.4967,-339.5198"/>
<polygon fill="#000000" stroke="#000000" points="385.3182,-336.1172 374.7612,-337.0119 383.5719,-342.8959 385.3182,-336.1172"/>
</g>
<!-- PORT1115013644 -->
<g id="node13" class="node">
<title>PORT1115013644</title>
<ellipse fill="none" stroke="#000000" cx="1244" cy="-322" rx="91.5099" ry="18"/>
<text text-anchor="middle" x="1244" y="-317.8" font-family="Times,serif" font-size="14.00" fill="#000000">File mkFile.numbers</text>
</g>
<!-- PORT1021565761&#45;&gt;PORT1115013644 -->
<g id="edge7" class="edge">
<title>PORT1021565761-&gt;PORT1115013644</title>
<path fill="none" stroke="#000000" d="M867.5274,-386.273C940.5866,-378.8074 1049.357,-365.98 1143,-348 1155.5576,-345.5889 1168.8729,-342.5294 1181.5724,-339.3628"/>
<polygon fill="#000000" stroke="#000000" points="1182.7713,-342.6693 1191.5988,-336.8106 1181.0444,-335.8857 1182.7713,-342.6693"/>
</g>
<!-- PORT1357686726 -->
<g id="node14" class="node">
<title>PORT1357686726</title>
<polygon fill="none" stroke="#000000" points="1267.4608,-250 1233.2304,-268 1164.7696,-268 1130.5392,-250 1164.7696,-232 1233.2304,-232 1267.4608,-250"/>
<text text-anchor="middle" x="1199" y="-245.8" font-family="Times,serif" font-size="14.00" fill="#000000">Int wc.count</text>
</g>
<!-- PORT690822257 -->
<g id="node15" class="node">
<title>PORT690822257</title>
<ellipse fill="none" stroke="#000000" cx="1101" cy="-178" rx="59.1122" ry="18"/>
<text text-anchor="middle" x="1101" y="-173.8" font-family="Times,serif" font-size="14.00" fill="#000000">Int wc.count</text>
</g>
<!-- PORT1357686726&#45;&gt;PORT690822257 -->
<g id="edge8" class="edge">
<title>PORT1357686726-&gt;PORT690822257</title>
<path fill="none" stroke="#000000" d="M1174.2705,-231.8314C1161.4043,-222.3787 1145.5514,-210.7316 1131.886,-200.6918"/>
<polygon fill="#000000" stroke="#000000" points="1133.8375,-197.7824 1123.7064,-194.6822 1129.6929,-203.4236 1133.8375,-197.7824"/>
</g>
<!-- PORT883521348 -->
<g id="node16" class="node">
<title>PORT883521348</title>
<polygon fill="none" stroke="#000000" points="912.2043,-322 864.1022,-340 767.8978,-340 719.7957,-322 767.8978,-304 864.1022,-304 912.2043,-322"/>
<text text-anchor="middle" x="816" y="-317.8" font-family="Times,serif" font-size="14.00" fill="#000000">String grep.pattern</text>
</g>
<!-- PORT742255664 -->
<g id="node17" class="node">
<title>PORT742255664</title>
<ellipse fill="none" stroke="#000000" cx="816" cy="-250" rx="63.7415" ry="18"/>
<text text-anchor="middle" x="816" y="-245.8" font-family="Times,serif" font-size="14.00" fill="#000000">String pattern</text>
</g>
<!-- PORT883521348&#45;&gt;PORT742255664 -->
<g id="edge9" class="edge">
<title>PORT883521348-&gt;PORT742255664</title>
<path fill="none" stroke="#000000" d="M816,-303.8314C816,-296.131 816,-286.9743 816,-278.4166"/>
<polygon fill="#000000" stroke="#000000" points="819.5001,-278.4132 816,-268.4133 812.5001,-278.4133 819.5001,-278.4132"/>
</g>
<!-- PORT2002790740 -->
<g id="node18" class="node">
<title>PORT2002790740</title>
<polygon fill="none" stroke="#000000" points="608.0878,-250 570.5439,-268 495.4561,-268 457.9122,-250 495.4561,-232 570.5439,-232 608.0878,-250"/>
<text text-anchor="middle" x="533" y="-245.8" font-family="Times,serif" font-size="14.00" fill="#000000">Int grep.count</text>
</g>
<!-- PORT1692375649 -->
<g id="node19" class="node">
<title>PORT1692375649</title>
<ellipse fill="none" stroke="#000000" cx="556" cy="-178" rx="65.413" ry="18"/>
<text text-anchor="middle" x="556" y="-173.8" font-family="Times,serif" font-size="14.00" fill="#000000">Int grep.count</text>
</g>
<!-- PORT2002790740&#45;&gt;PORT1692375649 -->
<g id="edge10" class="edge">
<title>PORT2002790740-&gt;PORT1692375649</title>
<path fill="none" stroke="#000000" d="M538.8039,-231.8314C541.2908,-224.0463 544.2531,-214.7729 547.0125,-206.1347"/>
<polygon fill="#000000" stroke="#000000" points="550.409,-207.0041 550.118,-196.4133 543.7409,-204.874 550.409,-207.0041"/>
</g>
<!-- NODE1697281847 -->
<g id="node20" class="node">
<title>NODE1697281847</title>
<text text-anchor="middle" x="641" y="-317.8" font-family="Times,serif" font-size="14.00" fill="#000000">String grep.pattern</text>
</g>
<!-- NODE515273883 -->
<g id="node21" class="node">
<title>NODE515273883</title>
<text text-anchor="middle" x="115" y="-317.8" font-family="Times,serif" font-size="14.00" fill="#000000">File in_file = f(mkFile.numbers)</text>
</g>
<!-- NODE821405322 -->
<g id="node22" class="node">
<title>NODE821405322</title>
<text text-anchor="middle" x="650" y="-101.8" font-family="Times,serif" font-size="14.00" fill="#000000">call forkjoin.join (join)</text>
</g>
<!-- NODE1527086220 -->
<g id="node23" class="node">
<title>NODE1527086220</title>
<text text-anchor="middle" x="1046" y="-245.8" font-family="Times,serif" font-size="14.00" fill="#000000">call forkjoin.wc (wc)</text>
</g>
<!-- NODE505231702 -->
<g id="node24" class="node">
<title>NODE505231702</title>
<text text-anchor="middle" x="815" y="-29.8" font-family="Times,serif" font-size="14.00" fill="#000000">Int joined_proportion</text>
</g>
<!-- PORT2086068243 -->
<g id="node25" class="node">
<title>PORT2086068243</title>
<polygon fill="none" stroke="#000000" points="728.3837,-34 674.1918,-52 565.8082,-52 511.6163,-34 565.8082,-16 674.1918,-16 728.3837,-34"/>
<text text-anchor="middle" x="620" y="-29.8" font-family="Times,serif" font-size="14.00" fill="#000000">Int joined_proportion</text>
</g>
<!-- NODE737104370 -->
<g id="node26" class="node">
<title>NODE737104370</title>
<text text-anchor="middle" x="941" y="-173.8" font-family="Times,serif" font-size="14.00" fill="#000000">Int wcCount = f(wc.count)</text>
</g>
<!-- NODE105966264 -->
<g id="node27" class="node">
<title>NODE105966264</title>
<text text-anchor="middle" x="382" y="-173.8" font-family="Times,serif" font-size="14.00" fill="#000000">Int grepCount = f(grep.count)</text>
</g>
<!-- NODE597364637 -->
<g id="node28" class="node">
<title>NODE597364637</title>
<text text-anchor="middle" x="570" y="-389.8" font-family="Times,serif" font-size="14.00" fill="#000000">call forkjoin.mkFile (mkFile)</text>
</g>
<!-- NODE1535026957 -->
<g id="node29" class="node">
<title>NODE1535026957</title>
<text text-anchor="middle" x="364" y="-245.8" font-family="Times,serif" font-size="14.00" fill="#000000">call forkjoin.grep (grep)</text>
</g>
<!-- NODE1637613097 -->
<g id="node30" class="node">
<title>NODE1637613097</title>
<text text-anchor="middle" x="1035" y="-317.8" font-family="Times,serif" font-size="14.00" fill="#000000">File in_file = f(mkFile.numbers)</text>
</g>
</g>
</svg>