<?xml version="1.0" encoding="UTF-8" standalone="no"?>
<!DOCTYPE svg PUBLIC "-//W3C//DTD SVG 1.1//EN"
 "http://www.w3.org/Graphics/SVG/1.1/DTD/svg11.dtd">
<!-- Generated by graphviz version 2.40.1 (20161225.0304)
 -->
<!-- Title: WDL_MAP Pages: 1 -->
<svg width="877pt" height="593pt"
 viewBox="0.00 0.00 876.98 592.82" xmlns="http://www.w3.org/2000/svg" xmlns:xlink="http://www.w3.org/1999/xlink">
<g id="graph0" class="graph" transform="scale(1 1) rotate(0) translate(4 588.8234)">
<title>WDL_MAP</title>
<polygon fill="#ffffff" stroke="transparent" points="-4,4 -4,-588.8234 872.976,-588.8234 872.976,4 -4,4"/>
<!-- wdldraft2 -->
<g id="node1" class="node">
<title>wdldraft2</title>
<polygon fill="none" stroke="#000000" points="141.8631,-540.8234 283.5895,-573.8234 .1368,-573.8234 141.8631,-540.8234"/>
<text text-anchor="middle" x="141.8631" y="-558.6234" font-family="Times,serif" font-size="14.00" fill="#000000">WDL Draft 2 file</text>
</g>
<!-- wdldraft2ast -->
<g id="node2" class="node">
<title>wdldraft2ast</title>
<ellipse fill="none" stroke="#000000" cx="141.8631" cy="-472.8234" rx="75.7087" ry="18"/>
<text text-anchor="middle" x="141.8631" y="-468.6234" font-family="Times,serif" font-size="14.00" fill="#000000">WDL Draft 2 AST</text>
</g>
<!-- wdldraft2&#45;&gt;wdldraft2ast -->
<g id="edge1" class="edge">
<title>wdldraft2&#45;&gt;wdldraft2ast</title>
<path fill="none" stroke="#000000" d="M141.8631,-540.5762C141.8631,-528.6201 141.8631,-513.756 141.8631,-500.9991"/>
<polygon fill="#000000" stroke="#000000" points="145.3632,-500.8891 141.8631,-490.8891 138.3632,-500.8891 145.3632,-500.8891"/>
<text text-anchor="middle" x="207.7513" y="-511.6234" font-family="Times,serif" font-size="14.00" fill="#000000">Hermes Parser (draft 2)</text>
</g>
<!-- wdldraft2model -->
<g id="node3" class="node">
<title>wdldraft2model</title>
<ellipse fill="none" stroke="#000000" cx="141.8631" cy="-379.3675" rx="100.2708" ry="18"/>
<text text-anchor="middle" x="141.8631" y="-375.1675" font-family="Times,serif" font-size="14.00" fill="#000000">WDL Draft 2 Namespace</text>
</g>
<!-- wdldraft2ast&#45;&gt;wdldraft2model -->
<g id="edge2" class="edge">
<title>wdldraft2ast&#45;&gt;wdldraft2model</title>
<path fill="none" stroke="#000000" d="M141.8631,-454.8041C141.8631,-441.4444 141.8631,-422.9728 141.8631,-407.6521"/>
<polygon fill="#000000" stroke="#000000" points="145.3632,-407.6503 141.8631,-397.6503 138.3632,-407.6504 145.3632,-407.6503"/>
<text text-anchor="middle" x="219.4134" y="-425.6234" font-family="Times,serif" font-size="14.00" fill="#000000">WdlNamespace constructor</text>
</g>
<!-- validatedwomnamespace -->
<g id="node4" class="node">
<title>validatedwomnamespace</title>
<ellipse fill="none" stroke="#000000" cx="157.8631" cy="-22" rx="111.2362" ry="18"/>
<ellipse fill="none" stroke="#000000" cx="157.8631" cy="-22" rx="115.2403" ry="22"/>
<text text-anchor="middle" x="157.8631" y="-17.8" font-family="Times,serif" font-size="14.00" fill="#000000">Validated WOM Namespace</text>
</g>
<!-- wdldraft2model&#45;&gt;validatedwomnamespace -->
<g id="edge3" class="edge">
<title>wdldraft2model&#45;&gt;validatedwomnamespace</title>
<path fill="none" stroke="#000000" d="M141.8631,-361.2552C141.8631,-346.3877 141.8631,-324.7858 141.8631,-305.9117 141.8631,-305.9117 141.8631,-305.9117 141.8631,-126 141.8631,-101.7321 146.1716,-74.6455 150.317,-54.2003"/>
<polygon fill="#000000" stroke="#000000" points="153.7946,-54.673 152.4462,-44.1643 146.947,-53.2201 153.7946,-54.673"/>
<text text-anchor="middle" x="175.8958" y="-222.2558" font-family="Times,serif" font-size="14.00" fill="#000000">inputs.json,</text>
<text text-anchor="middle" x="175.8958" y="-208.2558" font-family="Times,serif" font-size="14.00" fill="#000000">options.json</text>
</g>
<!-- wdl1_0 -->
<g id="node5" class="node">
<title>wdl1_0</title>
<polygon fill="none" stroke="#000000" points="424.8631,-540.8234 538.1424,-573.8234 311.5839,-573.8234 424.8631,-540.8234"/>
<text text-anchor="middle" x="424.8631" y="-558.6234" font-family="Times,serif" font-size="14.00" fill="#000000">WDL 1.0 file</text>
</g>
<!-- wdl1_0ast -->
<g id="node6" class="node">
<title>wdl1_0ast</title>
<ellipse fill="none" stroke="#000000" cx="435.8631" cy="-472.8234" rx="61.7351" ry="18"/>
<text text-anchor="middle" x="435.8631" y="-468.6234" font-family="Times,serif" font-size="14.00" fill="#000000">WDL 1.0 AST</text>
</g>
<!-- wdl1_0&#45;&gt;wdl1_0ast -->
<g id="edge4" class="edge">
<title>wdl1_0&#45;&gt;wdl1_0ast</title>
<path fill="none" stroke="#000000" d="M427.47,-541.4946C428.9538,-529.3538 430.8305,-513.9994 432.4328,-500.8899"/>
<polygon fill="#000000" stroke="#000000" points="435.9071,-501.3125 433.6462,-490.9618 428.9588,-500.4633 435.9071,-501.3125"/>
<text text-anchor="middle" x="488.0374" y="-511.6234" font-family="Times,serif" font-size="14.00" fill="#000000">Hermes Parser (1.0)</text>
</g>
<!-- wdlom -->
<g id="node7" class="node">
<title>wdlom</title>
<ellipse fill="none" stroke="#000000" cx="443.8631" cy="-379.3675" rx="81.0027" ry="18"/>
<text text-anchor="middle" x="443.8631" y="-375.1675" font-family="Times,serif" font-size="14.00" fill="#000000">WDL Object Model</text>
</g>
<!-- wdl1_0ast&#45;&gt;wdlom -->
<g id="edge5" class="edge">
<title>wdl1_0ast&#45;&gt;wdlom</title>
<path fill="none" stroke="#000000" d="M437.4056,-454.8041C438.5492,-441.4444 440.1304,-422.9728 441.4419,-407.6521"/>
<polygon fill="#000000" stroke="#000000" points="444.9323,-407.9124 442.2981,-397.6503 437.9578,-407.3153 444.9323,-407.9124"/>
<text text-anchor="middle" x="491.7977" y="-425.6234" font-family="Times,serif" font-size="14.00" fill="#000000"> draft3.ast2wdlom</text>
</g>
<!-- wdlomandimports -->
<g id="node10" class="node">
<title>wdlomandimports</title>
<ellipse fill="none" stroke="#000000" cx="443.8631" cy="-305.9117" rx="11" ry="11"/>
<text text-anchor="middle" x="443.8631" y="-301.7117" font-family="Times,serif" font-size="14.00" fill="#000000">+</text>
</g>
<!-- wdlom&#45;&gt;wdlomandimports -->
<g id="edge8" class="edge">
<title>wdlom&#45;&gt;wdlomandimports</title>
<path fill="none" stroke="#000000" d="M443.8631,-361.2099C443.8631,-350.9936 443.8631,-338.1758 443.8631,-327.4537"/>
<polygon fill="#000000" stroke="#000000" points="447.3632,-327.2357 443.8631,-317.2357 440.3632,-327.2357 447.3632,-327.2357"/>
</g>
<!-- wdlbiscayne -->
<g id="node8" class="node">
<title>wdlbiscayne</title>
<polygon fill="none" stroke="#000000" points="712.8631,-540.8234 869.0889,-573.8234 556.6373,-573.8234 712.8631,-540.8234"/>
<text text-anchor="middle" x="712.8631" y="-558.6234" font-family="Times,serif" font-size="14.00" fill="#000000">WDL Biscayne file</text>
</g>
<!-- wdlbiscayneast -->
<g id="node9" class="node">
<title>wdlbiscayneast</title>
<ellipse fill="none" stroke="#000000" cx="677.8631" cy="-472.8234" rx="82.9581" ry="18"/>
<text text-anchor="middle" x="677.8631" y="-468.6234" font-family="Times,serif" font-size="14.00" fill="#000000">WDL Biscayne AST</text>
</g>
<!-- wdlbiscayne&#45;&gt;wdlbiscayneast -->
<g id="edge6" class="edge">
<title>wdlbiscayne&#45;&gt;wdlbiscayneast</title>
<path fill="none" stroke="#000000" d="M704.9211,-542.401C700.0846,-529.9644 693.8432,-513.9151 688.5738,-500.3651"/>
<polygon fill="#000000" stroke="#000000" points="691.8291,-499.0792 684.9426,-491.0278 685.3051,-501.6164 691.8291,-499.0792"/>
<text text-anchor="middle" x="768.9461" y="-511.6234" font-family="Times,serif" font-size="14.00" fill="#000000">Hermes Parser (Biscayne)</text>
</g>
<!-- wdlbiscayneast&#45;&gt;wdlom -->
<g id="edge7" class="edge">
<title>wdlbiscayneast&#45;&gt;wdlom</title>
<path fill="none" stroke="#000000" d="M638.1682,-456.9699C598.0428,-440.9444 535.9606,-416.1498 492.8096,-398.916"/>
<polygon fill="#000000" stroke="#000000" points="493.9465,-395.6013 483.3616,-395.1426 491.3502,-402.102 493.9465,-395.6013"/>
<text text-anchor="middle" x="639.5736" y="-425.6234" font-family="Times,serif" font-size="14.00" fill="#000000"> biscayne.ast2wdlom</text>
</g>
<!-- linkedgraph -->
<g id="node12" class="node">
<title>linkedgraph</title>
<ellipse fill="none" stroke="#000000" cx="435.8631" cy="-219.4558" rx="207.714" ry="25.4118"/>
<text text-anchor="middle" x="435.8631" y="-222.2558" font-family="Times,serif" font-size="14.00" fill="#000000">Linked inputs</text>
<text text-anchor="middle" x="435.8631" y="-208.2558" font-family="Times,serif" font-size="14.00" fill="#000000">(with resolved types, value lookups, graph edges)</text>
</g>
<!-- wdlomandimports&#45;&gt;linkedgraph -->
<g id="edge10" class="edge">
<title>wdlomandimports&#45;&gt;linkedgraph</title>
<path fill="none" stroke="#000000" d="M442.8173,-294.6091C441.8834,-284.5172 440.4643,-269.1804 439.1509,-254.9873"/>
<polygon fill="#000000" stroke="#000000" points="442.6284,-254.581 438.2218,-244.9461 435.6582,-255.226 442.6284,-254.581"/>
<text text-anchor="middle" x="481.9115" y="-265.7117" font-family="Times,serif" font-size="14.00" fill="#000000"> draft3.linking</text>
</g>
<!-- importedbundles -->
<g id="node11" class="node">
<title>importedbundles</title>
<ellipse fill="none" stroke="#000000" cx="670.8631" cy="-379.3675" rx="125.9496" ry="25.4118"/>
<text text-anchor="middle" x="670.8631" y="-382.1675" font-family="Times,serif" font-size="14.00" fill="#000000">WOM Bundles from imports</text>
<text text-anchor="middle" x="670.8631" y="-368.1675" font-family="Times,serif" font-size="14.00" fill="#000000">(generated recursively)</text>
</g>
<!-- importedbundles&#45;&gt;wdlomandimports -->
<g id="edge9" class="edge">
<title>importedbundles&#45;&gt;wdlomandimports</title>
<path fill="none" stroke="#000000" d="M603.9834,-357.7257C556.2528,-342.2803 495.2085,-322.5267 464.0844,-312.4552"/>
<polygon fill="#000000" stroke="#000000" points="464.986,-309.0683 454.3941,-309.3195 462.8308,-315.7283 464.986,-309.0683"/>
</g>
<!-- wombundle -->
<g id="node13" class="node">
<title>wombundle</title>
<ellipse fill="none" stroke="#000000" cx="435.8631" cy="-126" rx="60.4204" ry="18"/>
<text text-anchor="middle" x="435.8631" y="-121.8" font-family="Times,serif" font-size="14.00" fill="#000000">WOM Bundle</text>
</g>
<!-- linkedgraph&#45;&gt;wombundle -->
<g id="edge11" class="edge">
<title>linkedgraph&#45;&gt;wombundle</title>
<path fill="none" stroke="#000000" d="M435.8631,-193.9186C435.8631,-181.5898 435.8631,-166.7641 435.8631,-154.1141"/>
<polygon fill="#000000" stroke="#000000" points="439.3632,-154.1023 435.8631,-144.1023 432.3632,-154.1023 439.3632,-154.1023"/>
<text text-anchor="middle" x="493.0218" y="-164.8" font-family="Times,serif" font-size="14.00" fill="#000000"> draft3.wdlom2wom</text>
</g>
<!-- wombundle&#45;&gt;validatedwomnamespace -->
<g id="edge13" class="edge">
<title>wombundle&#45;&gt;validatedwomnamespace</title>
<path fill="none" stroke="#000000" d="M398.0815,-111.8659C352.2855,-94.7335 274.4735,-65.624 219.8486,-45.1888"/>
<polygon fill="#000000" stroke="#000000" points="220.8645,-41.832 210.2721,-41.6062 218.4118,-48.3883 220.8645,-41.832"/>
<text text-anchor="middle" x="372.8958" y="-78.8" font-family="Times,serif" font-size="14.00" fill="#000000">inputs.json,</text>
<text text-anchor="middle" x="372.8958" y="-64.8" font-family="Times,serif" font-size="14.00" fill="#000000">options.json</text>
</g>
<!-- wombundle&#45;&gt;importedbundles -->
<g id="edge12" class="edge">
<title>wombundle&#45;&gt;importedbundles</title>
<path fill="none" stroke="#000000" stroke-dasharray="1,5" d="M487.5345,-135.3701C544.8584,-146.8873 632.0444,-168.1223 652.8631,-194 686.8894,-236.2947 684.028,-302.8379 678.0271,-343.6351"/>
<polygon fill="#000000" stroke="#000000" points="674.5454,-343.2416 676.4108,-353.6709 681.4564,-344.3546 674.5454,-343.2416"/>
</g>
</g>
</svg>
