<?xml version="1.0" encoding="UTF-8" standalone="no"?>
<!DOCTYPE svg PUBLIC "-//W3C//DTD SVG 1.1//EN"
 "http://www.w3.org/Graphics/SVG/1.1/DTD/svg11.dtd">
<!-- Generated by graphviz version 2.40.1 (20161225.0304)
 -->
<!-- Title: Hermes ASTs Pages: 1 -->
<svg width="776pt" height="548pt"
 viewBox="0.00 0.00 775.63 547.74" xmlns="http://www.w3.org/2000/svg" xmlns:xlink="http://www.w3.org/1999/xlink">
<g id="graph0" class="graph" transform="scale(1 1) rotate(0) translate(4 543.7351)">
<title>Hermes ASTs</title>
<polygon fill="#ffffff" stroke="transparent" points="-4,4 -4,-543.7351 771.6338,-543.7351 771.6338,4 -4,4"/>
<!-- declarationAst -->
<g id="node1" class="node">
<title>declarationAst</title>
<ellipse fill="none" stroke="#000000" cx="193.1255" cy="-514.2792" rx="88.147" ry="25.4118"/>
<text text-anchor="middle" x="193.1255" y="-517.0792" font-family="Times,serif" font-size="14.00" fill="#000000">AST</text>
<text text-anchor="middle" x="193.1255" y="-503.0792" font-family="Times,serif" font-size="14.00" fill="#000000">name=&#39;Declaration&#39;</text>
</g>
<!-- declarationTypeTerminal -->
<g id="node2" class="node">
<title>declarationTypeTerminal</title>
<polygon fill="none" stroke="#000000" points="108.3768,-438.3675 -.1258,-438.3675 -.1258,-388.3675 108.3768,-388.3675 108.3768,-438.3675"/>
<text text-anchor="middle" x="54.1255" y="-423.1675" font-family="Times,serif" font-size="14.00" fill="#000000">Terminal</text>
<text text-anchor="middle" x="54.1255" y="-409.1675" font-family="Times,serif" font-size="14.00" fill="#000000">tokentype=&#39;type&#39;</text>
<text text-anchor="middle" x="54.1255" y="-395.1675" font-family="Times,serif" font-size="14.00" fill="#000000">value=&quot;Int&quot;</text>
</g>
<!-- declarationAst&#45;&gt;declarationTypeTerminal -->
<g id="edge1" class="edge">
<title>declarationAst&#45;&gt;declarationTypeTerminal</title>
<path fill="none" stroke="#000000" d="M160.5362,-490.6199C141.6353,-476.8982 117.6035,-459.4515 97.1622,-444.6115"/>
<polygon fill="#000000" stroke="#000000" points="99.089,-441.6852 88.9404,-438.6426 94.9765,-447.3499 99.089,-441.6852"/>
<text text-anchor="middle" x="151.3618" y="-459.6234" font-family="Times,serif" font-size="14.00" fill="#000000">[&#39;type&#39;]</text>
</g>
<!-- declarationNameTerminal -->
<g id="node3" class="node">
<title>declarationNameTerminal</title>
<polygon fill="none" stroke="#000000" points="260.3182,-438.3675 125.9328,-438.3675 125.9328,-388.3675 260.3182,-388.3675 260.3182,-438.3675"/>
<text text-anchor="middle" x="193.1255" y="-423.1675" font-family="Times,serif" font-size="14.00" fill="#000000">Terminal</text>
<text text-anchor="middle" x="193.1255" y="-409.1675" font-family="Times,serif" font-size="14.00" fill="#000000">tokentype=&#39;identifier&#39;</text>
<text text-anchor="middle" x="193.1255" y="-395.1675" font-family="Times,serif" font-size="14.00" fill="#000000">value=&quot;foo&quot;</text>
</g>
<!-- declarationAst&#45;&gt;declarationNameTerminal -->
<g id="edge2" class="edge">
<title>declarationAst&#45;&gt;declarationNameTerminal</title>
<path fill="none" stroke="#000000" d="M193.1255,-488.8149C193.1255,-476.6522 193.1255,-461.8973 193.1255,-448.6729"/>
<polygon fill="#000000" stroke="#000000" points="196.6256,-448.4741 193.1255,-438.4741 189.6256,-448.4741 196.6256,-448.4741"/>
<text text-anchor="middle" x="215.4688" y="-459.6234" font-family="Times,serif" font-size="14.00" fill="#000000">[&#39;name&#39;]</text>
</g>
<!-- minExpressionAst -->
<g id="node4" class="node">
<title>minExpressionAst</title>
<ellipse fill="none" stroke="#000000" cx="372.1255" cy="-413.3675" rx="93.697" ry="25.4118"/>
<text text-anchor="middle" x="372.1255" y="-416.1675" font-family="Times,serif" font-size="14.00" fill="#000000">AST</text>
<text text-anchor="middle" x="372.1255" y="-402.1675" font-family="Times,serif" font-size="14.00" fill="#000000">name=&#39;FunctionCall&#39;</text>
</g>
<!-- declarationAst&#45;&gt;minExpressionAst -->
<g id="edge3" class="edge">
<title>declarationAst&#45;&gt;minExpressionAst</title>
<path fill="none" stroke="#000000" d="M233.7434,-491.3808C260.0839,-476.5312 294.5731,-457.0879 322.5301,-441.327"/>
<polygon fill="#000000" stroke="#000000" points="324.3667,-444.3096 331.3589,-436.3498 320.929,-438.2118 324.3667,-444.3096"/>
<text text-anchor="middle" x="331.248" y="-459.6234" font-family="Times,serif" font-size="14.00" fill="#000000">[&#39;expression&#39;]</text>
</g>
<!-- minExpressionName -->
<g id="node5" class="node">
<title>minExpressionName</title>
<polygon fill="none" stroke="#000000" points="390.3182,-337.9117 255.9328,-337.9117 255.9328,-287.9117 390.3182,-287.9117 390.3182,-337.9117"/>
<text text-anchor="middle" x="323.1255" y="-322.7117" font-family="Times,serif" font-size="14.00" fill="#000000">Terminal</text>
<text text-anchor="middle" x="323.1255" y="-308.7117" font-family="Times,serif" font-size="14.00" fill="#000000">tokentype=&#39;identifier&#39;</text>
<text text-anchor="middle" x="323.1255" y="-294.7117" font-family="Times,serif" font-size="14.00" fill="#000000">value=&quot;min&quot;</text>
</g>
<!-- minExpressionAst&#45;&gt;minExpressionName -->
<g id="edge4" class="edge">
<title>minExpressionAst&#45;&gt;minExpressionName</title>
<path fill="none" stroke="#000000" d="M359.7607,-388.0183C353.7835,-375.7642 346.517,-360.8671 340.0365,-347.5813"/>
<polygon fill="#000000" stroke="#000000" points="343.0161,-345.7062 335.4863,-338.2528 336.7247,-348.7751 343.0161,-345.7062"/>
<text text-anchor="middle" x="373.4688" y="-358.7117" font-family="Times,serif" font-size="14.00" fill="#000000">[&#39;name&#39;]</text>
</g>
<!-- minExpressionParams -->
<g id="node6" class="node">
<title>minExpressionParams</title>
<polygon fill="none" stroke="#000000" points="408.3013,-294.9117 408.3013,-330.9117 495.9497,-330.9117 495.9497,-294.9117 408.3013,-294.9117"/>
<text text-anchor="middle" x="418.0513" y="-308.7117" font-family="Times,serif" font-size="14.00" fill="#000000"> </text>
<polyline fill="none" stroke="#000000" points="427.8013,-294.9117 427.8013,-330.9117 "/>
<text text-anchor="middle" x="452.1255" y="-308.7117" font-family="Times,serif" font-size="14.00" fill="#000000">Array</text>
<polyline fill="none" stroke="#000000" points="476.4497,-294.9117 476.4497,-330.9117 "/>
<text text-anchor="middle" x="486.1997" y="-308.7117" font-family="Times,serif" font-size="14.00" fill="#000000"> </text>
</g>
<!-- minExpressionAst&#45;&gt;minExpressionParams -->
<g id="edge5" class="edge">
<title>minExpressionAst&#45;&gt;minExpressionParams</title>
<path fill="none" stroke="#000000" d="M392.1065,-388.2774C404.0555,-373.2731 419.2156,-354.2365 431.3098,-339.0498"/>
<polygon fill="#000000" stroke="#000000" points="434.1818,-341.0619 437.6736,-331.0589 428.706,-336.7011 434.1818,-341.0619"/>
<text text-anchor="middle" x="444.5239" y="-358.7117" font-family="Times,serif" font-size="14.00" fill="#000000">[&#39;params&#39;]</text>
</g>
<!-- literal100 -->
<g id="node7" class="node">
<title>literal100</title>
<polygon fill="none" stroke="#000000" points="460.6421,-237.4558 337.6089,-237.4558 337.6089,-187.4558 460.6421,-187.4558 460.6421,-237.4558"/>
<text text-anchor="middle" x="399.1255" y="-222.2558" font-family="Times,serif" font-size="14.00" fill="#000000">Terminal</text>
<text text-anchor="middle" x="399.1255" y="-208.2558" font-family="Times,serif" font-size="14.00" fill="#000000">tokentype=&#39;integer&#39;</text>
<text text-anchor="middle" x="399.1255" y="-194.2558" font-family="Times,serif" font-size="14.00" fill="#000000">value=&quot;100&quot;</text>
</g>
<!-- minExpressionParams&#45;&gt;literal100 -->
<g id="edge6" class="edge">
<title>minExpressionParams&#45;&gt;literal100</title>
<path fill="none" stroke="#000000" d="M442.4045,-294.4865C435.3598,-281.1341 425.6276,-262.6877 417.176,-246.6687"/>
<polygon fill="#000000" stroke="#000000" points="420.1398,-244.7856 412.3778,-237.5743 413.9486,-248.052 420.1398,-244.7856"/>
<text text-anchor="middle" x="437.2876" y="-258.7117" font-family="Times,serif" font-size="14.00" fill="#000000">[0]</text>
</g>
<!-- maxExpressionAst -->
<g id="node8" class="node">
<title>maxExpressionAst</title>
<ellipse fill="none" stroke="#000000" cx="572.1255" cy="-212.4558" rx="93.697" ry="25.4118"/>
<text text-anchor="middle" x="572.1255" y="-215.2558" font-family="Times,serif" font-size="14.00" fill="#000000">AST</text>
<text text-anchor="middle" x="572.1255" y="-201.2558" font-family="Times,serif" font-size="14.00" fill="#000000">name=&#39;FunctionCall&#39;</text>
</g>
<!-- minExpressionParams&#45;&gt;maxExpressionAst -->
<g id="edge7" class="edge">
<title>minExpressionParams&#45;&gt;maxExpressionAst</title>
<path fill="none" stroke="#000000" d="M473.8566,-294.7199C490.9095,-280.4444 515.0408,-260.2433 535.1223,-243.4324"/>
<polygon fill="#000000" stroke="#000000" points="537.4581,-246.0416 542.8793,-236.9388 532.9647,-240.6741 537.4581,-246.0416"/>
<text text-anchor="middle" x="528.2876" y="-258.7117" font-family="Times,serif" font-size="14.00" fill="#000000">[1]</text>
</g>
<!-- maxExpressionName -->
<g id="node9" class="node">
<title>maxExpressionName</title>
<polygon fill="none" stroke="#000000" points="573.8719,-136.5 484.379,-136.5 484.379,-100.5 573.8719,-100.5 573.8719,-136.5"/>
<text text-anchor="middle" x="529.1255" y="-121.3" font-family="Times,serif" font-size="14.00" fill="#000000">Terminal</text>
<text text-anchor="middle" x="529.1255" y="-107.3" font-family="Times,serif" font-size="14.00" fill="#000000">value=&quot;max&quot;</text>
</g>
<!-- maxExpressionAst&#45;&gt;maxExpressionName -->
<g id="edge8" class="edge">
<title>maxExpressionAst&#45;&gt;maxExpressionName</title>
<path fill="none" stroke="#000000" d="M558.2649,-186.9286C555.245,-181.0909 552.1458,-174.8744 549.439,-169 546.0842,-161.7194 542.7222,-153.719 539.7263,-146.2751"/>
<polygon fill="#000000" stroke="#000000" points="542.9591,-144.9323 536.03,-136.9174 536.4486,-147.504 542.9591,-144.9323"/>
<text text-anchor="middle" x="572.4688" y="-157.8" font-family="Times,serif" font-size="14.00" fill="#000000">[&#39;name&#39;]</text>
</g>
<!-- maxExpressionParams -->
<g id="node10" class="node">
<title>maxExpressionParams</title>
<polygon fill="none" stroke="#000000" points="592.3013,-100.5 592.3013,-136.5 679.9497,-136.5 679.9497,-100.5 592.3013,-100.5"/>
<text text-anchor="middle" x="602.0513" y="-114.3" font-family="Times,serif" font-size="14.00" fill="#000000"> </text>
<polyline fill="none" stroke="#000000" points="611.8013,-100.5 611.8013,-136.5 "/>
<text text-anchor="middle" x="636.1255" y="-114.3" font-family="Times,serif" font-size="14.00" fill="#000000">Array</text>
<polyline fill="none" stroke="#000000" points="660.4497,-100.5 660.4497,-136.5 "/>
<text text-anchor="middle" x="670.1997" y="-114.3" font-family="Times,serif" font-size="14.00" fill="#000000"> </text>
</g>
<!-- maxExpressionAst&#45;&gt;maxExpressionParams -->
<g id="edge9" class="edge">
<title>maxExpressionAst&#45;&gt;maxExpressionParams</title>
<path fill="none" stroke="#000000" d="M589.2763,-187.2774C598.2061,-174.168 609.1181,-158.1485 618.1636,-144.8691"/>
<polygon fill="#000000" stroke="#000000" points="621.0616,-146.8317 623.7987,-136.5965 615.2762,-142.8909 621.0616,-146.8317"/>
<text text-anchor="middle" x="637.5239" y="-157.8" font-family="Times,serif" font-size="14.00" fill="#000000">[&#39;params&#39;]</text>
</g>
<!-- literal1 -->
<g id="node11" class="node">
<title>literal1</title>
<polygon fill="none" stroke="#000000" points="626.6421,-50 503.6089,-50 503.6089,0 626.6421,0 626.6421,-50"/>
<text text-anchor="middle" x="565.1255" y="-34.8" font-family="Times,serif" font-size="14.00" fill="#000000">Terminal</text>
<text text-anchor="middle" x="565.1255" y="-20.8" font-family="Times,serif" font-size="14.00" fill="#000000">tokentype=&#39;integer&#39;</text>
<text text-anchor="middle" x="565.1255" y="-6.8" font-family="Times,serif" font-size="14.00" fill="#000000">value=&quot;1&quot;</text>
</g>
<!-- maxExpressionParams&#45;&gt;literal1 -->
<g id="edge10" class="edge">
<title>maxExpressionParams&#45;&gt;literal1</title>
<path fill="none" stroke="#000000" d="M622.436,-100.4723C613.3409,-88.495 601.1275,-72.4112 590.3125,-58.1688"/>
<polygon fill="#000000" stroke="#000000" points="592.9756,-55.8884 584.1405,-50.0409 587.4007,-60.1217 592.9756,-55.8884"/>
<text text-anchor="middle" x="615.2876" y="-70.8" font-family="Times,serif" font-size="14.00" fill="#000000">[0]</text>
</g>
<!-- literal2 -->
<g id="node12" class="node">
<title>literal2</title>
<polygon fill="none" stroke="#000000" points="767.6421,-50 644.6089,-50 644.6089,0 767.6421,0 767.6421,-50"/>
<text text-anchor="middle" x="706.1255" y="-34.8" font-family="Times,serif" font-size="14.00" fill="#000000">Terminal</text>
<text text-anchor="middle" x="706.1255" y="-20.8" font-family="Times,serif" font-size="14.00" fill="#000000">tokentype=&#39;integer&#39;</text>
<text text-anchor="middle" x="706.1255" y="-6.8" font-family="Times,serif" font-size="14.00" fill="#000000">value=&quot;2&quot;</text>
</g>
<!-- maxExpressionParams&#45;&gt;literal2 -->
<g id="edge11" class="edge">
<title>maxExpressionParams&#45;&gt;literal2</title>
<path fill="none" stroke="#000000" d="M649.6222,-100.4723C658.5891,-88.495 670.6305,-72.4112 681.2932,-58.1688"/>
<polygon fill="#000000" stroke="#000000" points="684.1869,-60.1437 687.3783,-50.0409 678.5833,-55.9485 684.1869,-60.1437"/>
<text text-anchor="middle" x="681.2876" y="-70.8" font-family="Times,serif" font-size="14.00" fill="#000000">[1]</text>
</g>
</g>
</svg>
