<?xml version="1.0" encoding="UTF-8" standalone="no"?>
<!DOCTYPE svg PUBLIC "-//W3C//DTD SVG 1.1//EN"
 "http://www.w3.org/Graphics/SVG/1.1/DTD/svg11.dtd">
<!-- Generated by graphviz version 2.40.1 (20161225.0304)
 -->
<!-- Title: Hermes ASTs Pages: 1 -->
<svg width="962pt" height="474pt"
 viewBox="0.00 0.00 962.40 474.00" xmlns="http://www.w3.org/2000/svg" xmlns:xlink="http://www.w3.org/1999/xlink">
<g id="graph0" class="graph" transform="scale(1 1) rotate(0) translate(4 470)">
<title>Hermes ASTs</title>
<polygon fill="#ffffff" stroke="transparent" points="-4,4 -4,-470 958.4011,-470 958.4011,4 -4,4"/>
<!-- InputDeclarationElement -->
<g id="node1" class="node">
<title>InputDeclarationElement</title>
<ellipse fill="none" stroke="#000000" cx="243.0435" cy="-448" rx="99.4743" ry="18"/>
<text text-anchor="middle" x="243.0435" y="-443.8" font-family="Times,serif" font-size="14.00" fill="#000000">InputDeclarationElement</text>
</g>
<!-- declarationName -->
<g id="node2" class="node">
<title>declarationName</title>
<text text-anchor="middle" x="243.0435" y="-357.8" font-family="Times,serif" font-size="14.00" fill="#000000">&quot;foo&quot;</text>
</g>
<!-- InputDeclarationElement&#45;&gt;declarationName -->
<g id="edge2" class="edge">
<title>InputDeclarationElement&#45;&gt;declarationName</title>
<path fill="none" stroke="#000000" d="M243.0435,-429.7616C243.0435,-418.3597 243.0435,-403.4342 243.0435,-390.494"/>
<polygon fill="#000000" stroke="#000000" points="246.5436,-390.2121 243.0435,-380.2121 239.5436,-390.2121 246.5436,-390.2121"/>
<text text-anchor="middle" x="259.9522" y="-400.8" font-family="Times,serif" font-size="14.00" fill="#000000"> name</text>
</g>
<!-- PrimitiveTypeElement -->
<g id="node3" class="node">
<title>PrimitiveTypeElement</title>
<ellipse fill="none" stroke="#000000" cx="90.0435" cy="-362" rx="90.0869" ry="18"/>
<text text-anchor="middle" x="90.0435" y="-357.8" font-family="Times,serif" font-size="14.00" fill="#000000">PrimitiveTypeElement</text>
</g>
<!-- InputDeclarationElement&#45;&gt;PrimitiveTypeElement -->
<g id="edge1" class="edge">
<title>InputDeclarationElement&#45;&gt;PrimitiveTypeElement</title>
<path fill="none" stroke="#000000" d="M203.8307,-431.4279C191.1595,-425.6866 177.1875,-418.9398 164.7915,-412 150.5128,-404.0062 135.3963,-394.1767 122.5216,-385.3546"/>
<polygon fill="#000000" stroke="#000000" points="124.2151,-382.2696 114.0043,-379.4429 120.2237,-388.0202 124.2151,-382.2696"/>
<text text-anchor="middle" x="202.1694" y="-400.8" font-family="Times,serif" font-size="14.00" fill="#000000"> typeElement</text>
</g>
<!-- Min -->
<g id="node5" class="node">
<title>Min</title>
<ellipse fill="none" stroke="#000000" cx="315.0435" cy="-362" rx="27" ry="18"/>
<text text-anchor="middle" x="315.0435" y="-357.8" font-family="Times,serif" font-size="14.00" fill="#000000">Min</text>
</g>
<!-- InputDeclarationElement&#45;&gt;Min -->
<g id="edge3" class="edge">
<title>InputDeclarationElement&#45;&gt;Min</title>
<path fill="none" stroke="#000000" d="M263.5717,-430.0787C269.4747,-424.5293 275.7445,-418.2302 281.0435,-412 287.5363,-404.366 293.915,-395.4722 299.3616,-387.3199"/>
<polygon fill="#000000" stroke="#000000" points="302.3464,-389.15 304.8673,-378.8595 296.4793,-385.332 302.3464,-389.15"/>
<text text-anchor="middle" x="323.7315" y="-400.8" font-family="Times,serif" font-size="14.00" fill="#000000"> expression</text>
</g>
<!-- PrimitiveTypeElement&#45;&gt;declarationName -->
<!-- WomIntegerType -->
<g id="node4" class="node">
<title>WomIntegerType</title>
<ellipse fill="none" stroke="#000000" cx="90.0435" cy="-276" rx="71.7884" ry="18"/>
<text text-anchor="middle" x="90.0435" y="-271.8" font-family="Times,serif" font-size="14.00" fill="#000000">WomIntegerType</text>
</g>
<!-- PrimitiveTypeElement&#45;&gt;WomIntegerType -->
<g id="edge4" class="edge">
<title>PrimitiveTypeElement&#45;&gt;WomIntegerType</title>
<path fill="none" stroke="#000000" d="M90.0435,-343.7616C90.0435,-332.3597 90.0435,-317.4342 90.0435,-304.494"/>
<polygon fill="#000000" stroke="#000000" points="93.5436,-304.2121 90.0435,-294.2121 86.5436,-304.2121 93.5436,-304.2121"/>
</g>
<!-- Max -->
<g id="node6" class="node">
<title>Max</title>
<ellipse fill="none" stroke="#000000" cx="513.0435" cy="-276" rx="27" ry="18"/>
<text text-anchor="middle" x="513.0435" y="-271.8" font-family="Times,serif" font-size="14.00" fill="#000000">Max</text>
</g>
<!-- Min&#45;&gt;Max -->
<g id="edge6" class="edge">
<title>Min&#45;&gt;Max</title>
<path fill="none" stroke="#000000" d="M337.7566,-352.1347C372.947,-336.85 440.7672,-307.3927 480.9493,-289.9399"/>
<polygon fill="#000000" stroke="#000000" points="482.5133,-293.0765 490.2911,-285.8823 479.7246,-286.656 482.5133,-293.0765"/>
<text text-anchor="middle" x="438.3584" y="-314.8" font-family="Times,serif" font-size="14.00" fill="#000000">arg2</text>
</g>
<!-- PrimitiveLiteralExpressionElement100 -->
<g id="node7" class="node">
<title>PrimitiveLiteralExpressionElement100</title>
<ellipse fill="none" stroke="#000000" cx="315.0435" cy="-276" rx="135.2153" ry="18"/>
<text text-anchor="middle" x="315.0435" y="-271.8" font-family="Times,serif" font-size="14.00" fill="#000000">PrimitiveLiteralExpressionElement</text>
</g>
<!-- Min&#45;&gt;PrimitiveLiteralExpressionElement100 -->
<g id="edge5" class="edge">
<title>Min&#45;&gt;PrimitiveLiteralExpressionElement100</title>
<path fill="none" stroke="#000000" d="M315.0435,-343.7616C315.0435,-332.3597 315.0435,-317.4342 315.0435,-304.494"/>
<polygon fill="#000000" stroke="#000000" points="318.5436,-304.2121 315.0435,-294.2121 311.5436,-304.2121 318.5436,-304.2121"/>
<text text-anchor="middle" x="329.1084" y="-314.8" font-family="Times,serif" font-size="14.00" fill="#000000"> arg1</text>
</g>
<!-- PrimitiveLiteralExpressionElement1 -->
<g id="node10" class="node">
<title>PrimitiveLiteralExpressionElement1</title>
<ellipse fill="none" stroke="#000000" cx="513.0435" cy="-190" rx="135.2153" ry="18"/>
<text text-anchor="middle" x="513.0435" y="-185.8" font-family="Times,serif" font-size="14.00" fill="#000000">PrimitiveLiteralExpressionElement</text>
</g>
<!-- Max&#45;&gt;PrimitiveLiteralExpressionElement1 -->
<g id="edge7" class="edge">
<title>Max&#45;&gt;PrimitiveLiteralExpressionElement1</title>
<path fill="none" stroke="#000000" d="M513.0435,-257.7616C513.0435,-246.3597 513.0435,-231.4342 513.0435,-218.494"/>
<polygon fill="#000000" stroke="#000000" points="516.5436,-218.2121 513.0435,-208.2121 509.5436,-218.2121 516.5436,-218.2121"/>
<text text-anchor="middle" x="527.1084" y="-228.8" font-family="Times,serif" font-size="14.00" fill="#000000"> arg1</text>
</g>
<!-- PrimitiveLiteralExpressionElement2 -->
<g id="node13" class="node">
<title>PrimitiveLiteralExpressionElement2</title>
<ellipse fill="none" stroke="#000000" cx="819.0435" cy="-190" rx="135.2153" ry="18"/>
<text text-anchor="middle" x="819.0435" y="-185.8" font-family="Times,serif" font-size="14.00" fill="#000000">PrimitiveLiteralExpressionElement</text>
</g>
<!-- Max&#45;&gt;PrimitiveLiteralExpressionElement2 -->
<g id="edge8" class="edge">
<title>Max&#45;&gt;PrimitiveLiteralExpressionElement2</title>
<path fill="none" stroke="#000000" d="M538.0847,-268.9623C584.2046,-256.0005 684.0072,-227.9514 751.3696,-209.0194"/>
<polygon fill="#000000" stroke="#000000" points="752.3827,-212.3704 761.0627,-206.2952 750.4887,-205.6315 752.3827,-212.3704"/>
<text text-anchor="middle" x="698.1084" y="-228.8" font-family="Times,serif" font-size="14.00" fill="#000000"> arg2</text>
</g>
<!-- PrimitiveLiteralExpressionElement100&#45;&gt;Max -->
<!-- WomInteger100 -->
<g id="node8" class="node">
<title>WomInteger100</title>
<ellipse fill="none" stroke="#000000" cx="306.0435" cy="-190" rx="54.1821" ry="18"/>
<text text-anchor="middle" x="306.0435" y="-185.8" font-family="Times,serif" font-size="14.00" fill="#000000">WomInteger</text>
</g>
<!-- PrimitiveLiteralExpressionElement100&#45;&gt;WomInteger100 -->
<g id="edge9" class="edge">
<title>PrimitiveLiteralExpressionElement100&#45;&gt;WomInteger100</title>
<path fill="none" stroke="#000000" d="M313.1348,-257.7616C311.9416,-246.3597 310.3796,-231.4342 309.0254,-218.494"/>
<polygon fill="#000000" stroke="#000000" points="312.4713,-217.7935 307.9494,-208.2121 305.5093,-218.5221 312.4713,-217.7935"/>
<text text-anchor="middle" x="328.9522" y="-228.8" font-family="Times,serif" font-size="14.00" fill="#000000"> value</text>
</g>
<!-- literal100 -->
<g id="node9" class="node">
<title>literal100</title>
<text text-anchor="middle" x="306.0435" y="-99.8" font-family="Times,serif" font-size="14.00" fill="#000000">100</text>
</g>
<!-- WomInteger100&#45;&gt;literal100 -->
<g id="edge10" class="edge">
<title>WomInteger100&#45;&gt;literal100</title>
<path fill="none" stroke="#000000" d="M306.0435,-171.7616C306.0435,-160.3597 306.0435,-145.4342 306.0435,-132.494"/>
<polygon fill="#000000" stroke="#000000" points="309.5436,-132.2121 306.0435,-122.2121 302.5436,-132.2121 309.5436,-132.2121"/>
<text text-anchor="middle" x="322.9522" y="-142.8" font-family="Times,serif" font-size="14.00" fill="#000000"> value</text>
</g>
<!-- WomInteger1 -->
<g id="node11" class="node">
<title>WomInteger1</title>
<ellipse fill="none" stroke="#000000" cx="513.0435" cy="-104" rx="54.1821" ry="18"/>
<text text-anchor="middle" x="513.0435" y="-99.8" font-family="Times,serif" font-size="14.00" fill="#000000">WomInteger</text>
</g>
<!-- PrimitiveLiteralExpressionElement1&#45;&gt;WomInteger1 -->
<g id="edge11" class="edge">
<title>PrimitiveLiteralExpressionElement1&#45;&gt;WomInteger1</title>
<path fill="none" stroke="#000000" d="M513.0435,-171.7616C513.0435,-160.3597 513.0435,-145.4342 513.0435,-132.494"/>
<polygon fill="#000000" stroke="#000000" points="516.5436,-132.2121 513.0435,-122.2121 509.5436,-132.2121 516.5436,-132.2121"/>
<text text-anchor="middle" x="529.9522" y="-142.8" font-family="Times,serif" font-size="14.00" fill="#000000"> value</text>
</g>
<!-- PrimitiveLiteralExpressionElement1&#45;&gt;PrimitiveLiteralExpressionElement2 -->
<!-- literal1 -->
<g id="node12" class="node">
<title>literal1</title>
<text text-anchor="middle" x="513.0435" y="-13.8" font-family="Times,serif" font-size="14.00" fill="#000000">1</text>
</g>
<!-- WomInteger1&#45;&gt;literal1 -->
<g id="edge12" class="edge">
<title>WomInteger1&#45;&gt;literal1</title>
<path fill="none" stroke="#000000" d="M513.0435,-85.7616C513.0435,-74.3597 513.0435,-59.4342 513.0435,-46.494"/>
<polygon fill="#000000" stroke="#000000" points="516.5436,-46.2121 513.0435,-36.2121 509.5436,-46.2121 516.5436,-46.2121"/>
<text text-anchor="middle" x="529.9522" y="-56.8" font-family="Times,serif" font-size="14.00" fill="#000000"> value</text>
</g>
<!-- WomInteger2 -->
<g id="node14" class="node">
<title>WomInteger2</title>
<ellipse fill="none" stroke="#000000" cx="819.0435" cy="-104" rx="54.1821" ry="18"/>
<text text-anchor="middle" x="819.0435" y="-99.8" font-family="Times,serif" font-size="14.00" fill="#000000">WomInteger</text>
</g>
<!-- PrimitiveLiteralExpressionElement2&#45;&gt;WomInteger2 -->
<g id="edge13" class="edge">
<title>PrimitiveLiteralExpressionElement2&#45;&gt;WomInteger2</title>
<path fill="none" stroke="#000000" d="M819.0435,-171.7616C819.0435,-160.3597 819.0435,-145.4342 819.0435,-132.494"/>
<polygon fill="#000000" stroke="#000000" points="822.5436,-132.2121 819.0435,-122.2121 815.5436,-132.2121 822.5436,-132.2121"/>
<text text-anchor="middle" x="835.9522" y="-142.8" font-family="Times,serif" font-size="14.00" fill="#000000"> value</text>
</g>
<!-- literal2 -->
<g id="node15" class="node">
<title>literal2</title>
<text text-anchor="middle" x="819.0435" y="-13.8" font-family="Times,serif" font-size="14.00" fill="#000000">2</text>
</g>
<!-- WomInteger2&#45;&gt;literal2 -->
<g id="edge14" class="edge">
<title>WomInteger2&#45;&gt;literal2</title>
<path fill="none" stroke="#000000" d="M819.0435,-85.7616C819.0435,-74.3597 819.0435,-59.4342 819.0435,-46.494"/>
<polygon fill="#000000" stroke="#000000" points="822.5436,-46.2121 819.0435,-36.2121 815.5436,-46.2121 822.5436,-46.2121"/>
<text text-anchor="middle" x="835.9522" y="-56.8" font-family="Times,serif" font-size="14.00" fill="#000000"> value</text>
</g>
</g>
</svg>
